<svg xmlns="http://www.w3.org/2000/svg" xmlns:xlink="http://www.w3.org/1999/xlink" version="1.1" x="0px" y="0px" viewBox="0 0 70 70" fill="#5755d9" xml:space="preserve"><g><path d="M61,24c0-11.6-9.4-21-21-21c-2.8,0-5.4,0.6-8,1.6C29.4,3.6,26.8,3,24,3C12.4,3,3,12.4,3,24c0,6.5,2.9,12.5,8,16.5   C11.3,51.8,20.6,61,32,61c11.4,0,20.7-9.2,21-20.5C58.1,36.5,61,30.5,61,24z M40,5c10.5,0,19,8.5,19,19c0,5.4-2.2,10.3-6.1,13.9   c0,0,0-0.1,0-0.1c-0.1-0.6-0.2-1.2-0.3-1.8c0-0.1,0-0.2-0.1-0.3c-0.1-0.6-0.3-1.2-0.5-1.8c0-0.1,0-0.1-0.1-0.2   c-0.2-0.6-0.4-1.2-0.6-1.7c0-0.1,0-0.1-0.1-0.2c-0.2-0.6-0.5-1.1-0.8-1.7c-0.1-0.1-0.1-0.2-0.2-0.3c-0.3-0.5-0.6-1-0.9-1.5   c-0.1-0.1-0.1-0.2-0.2-0.3c-0.4-0.5-0.7-1-1.1-1.5c0,0-0.1-0.1-0.1-0.1c-0.4-0.5-0.8-0.9-1.3-1.3c0,0-0.1-0.1-0.1-0.1   c-0.5-0.4-0.9-0.9-1.4-1.2c0,0-0.1-0.1-0.1-0.1c0-0.2,0-0.5,0-0.7c0-0.2,0-0.3,0-0.5c0-0.4-0.1-0.7-0.1-1.1c0-0.1,0-0.2,0-0.4   c-0.1-0.5-0.2-1-0.3-1.4c0-0.1,0-0.2-0.1-0.2c-0.1-0.4-0.2-0.8-0.3-1.2c0-0.2-0.1-0.3-0.2-0.5c-0.1-0.3-0.2-0.6-0.3-0.9   c-0.1-0.2-0.1-0.3-0.2-0.5c-0.1-0.3-0.2-0.5-0.3-0.8c-0.1-0.2-0.2-0.3-0.2-0.5c-0.1-0.3-0.3-0.5-0.4-0.8c-0.1-0.2-0.2-0.3-0.3-0.5   c-0.1-0.3-0.3-0.5-0.5-0.8c-0.1-0.2-0.2-0.3-0.3-0.5c-0.2-0.3-0.4-0.5-0.5-0.8c-0.1-0.1-0.2-0.3-0.3-0.4c-0.2-0.3-0.5-0.6-0.7-0.9   c-0.1-0.1-0.1-0.2-0.2-0.2c-0.3-0.4-0.6-0.7-1-1c-0.1-0.1-0.2-0.1-0.2-0.2c-0.3-0.3-0.5-0.5-0.8-0.8c-0.1-0.1-0.3-0.2-0.4-0.3   c-0.2-0.2-0.5-0.4-0.7-0.6c-0.2-0.1-0.3-0.2-0.5-0.3c-0.2-0.2-0.5-0.3-0.7-0.5C35.2,6.2,35,6.1,34.9,6c-0.1-0.1-0.2-0.2-0.4-0.2   C36.3,5.3,38.1,5,40,5z M49.9,40.2c-0.2,0.1-0.5,0.3-0.7,0.4c-0.2,0.1-0.4,0.2-0.6,0.3c-0.3,0.1-0.5,0.2-0.8,0.4   c-0.2,0.1-0.4,0.2-0.6,0.3c-0.3,0.1-0.5,0.2-0.8,0.3c-0.2,0.1-0.4,0.1-0.6,0.2c-0.3,0.1-0.6,0.2-0.8,0.2c-0.2,0.1-0.4,0.1-0.6,0.2   c-0.3,0.1-0.6,0.1-0.9,0.2c-0.2,0-0.4,0.1-0.6,0.1c-0.3,0.1-0.7,0.1-1,0.1c-0.2,0-0.3,0-0.5,0.1C41,43,40.5,43,40,43   c-0.6,0-1.2,0-1.7-0.1c-0.2,0-0.3,0-0.5-0.1c-0.5-0.1-0.9-0.1-1.4-0.2c-0.1,0-0.3,0-0.4-0.1c-0.5-0.1-1-0.2-1.5-0.4   c0.1-0.1,0.2-0.2,0.4-0.2c0.1-0.1,0.3-0.2,0.4-0.3c0.3-0.2,0.5-0.4,0.8-0.5c0.1-0.1,0.2-0.2,0.4-0.3c0.4-0.3,0.7-0.6,1.1-0.9   c0,0,0.1-0.1,0.1-0.1c0.3-0.3,0.6-0.6,0.9-0.8c0.1-0.1,0.2-0.2,0.3-0.3c0.2-0.2,0.4-0.4,0.6-0.7c0.1-0.1,0.2-0.3,0.3-0.4   c0.2-0.2,0.4-0.5,0.6-0.7c0.1-0.1,0.2-0.3,0.3-0.4c0.2-0.3,0.4-0.6,0.6-0.8c0.1-0.1,0.1-0.2,0.2-0.3c0.3-0.4,0.5-0.8,0.7-1.2   c0.1-0.1,0.1-0.2,0.2-0.3c0.2-0.3,0.3-0.6,0.5-0.9c0.1-0.1,0.1-0.3,0.2-0.4c0.1-0.3,0.2-0.6,0.4-0.8c0.1-0.2,0.1-0.3,0.2-0.5   c0.1-0.3,0.2-0.6,0.3-0.9c0-0.1,0.1-0.3,0.1-0.4c0.1-0.4,0.2-0.8,0.3-1.2c0-0.1,0-0.1,0.1-0.2c0.1-0.5,0.2-0.9,0.3-1.4   c0-0.1,0-0.3,0.1-0.4c0-0.2,0.1-0.5,0.1-0.7c0,0,0,0,0.1,0.1c0.4,0.4,0.8,0.8,1.2,1.2c0.1,0.1,0.1,0.2,0.2,0.2   c0.4,0.4,0.7,0.9,1,1.3c0,0.1,0.1,0.1,0.1,0.2c0.3,0.5,0.6,0.9,0.9,1.4c0,0,0,0.1,0,0.1c0.3,0.5,0.5,1,0.8,1.5   c0,0.1,0.1,0.2,0.1,0.2c0.2,0.5,0.4,1,0.6,1.5C50,33.9,50,34,50,34c0.2,0.5,0.3,1.1,0.5,1.6c0,0,0,0.1,0,0.1   c0.1,0.5,0.2,1.1,0.3,1.6c0,0.1,0,0.1,0,0.2c0.1,0.6,0.1,1.1,0.1,1.7c0,0.1,0,0.1,0,0.2c-0.2,0.1-0.3,0.2-0.5,0.3   C50.3,39.9,50.1,40,49.9,40.2z M28,42.6c-0.1,0-0.3,0-0.4,0.1c-0.4,0.1-0.9,0.2-1.4,0.2c-0.2,0-0.3,0-0.5,0.1   C25.2,43,24.6,43,24,43c-0.5,0-1,0-1.5-0.1c-0.2,0-0.3,0-0.5-0.1c-0.3,0-0.7-0.1-1-0.1c-0.2,0-0.4-0.1-0.6-0.1   c-0.3-0.1-0.6-0.1-0.9-0.2c-0.2-0.1-0.4-0.1-0.6-0.2c-0.3-0.1-0.5-0.1-0.8-0.2c-0.2-0.1-0.4-0.2-0.6-0.2c-0.3-0.1-0.5-0.2-0.8-0.3   c-0.2-0.1-0.4-0.2-0.6-0.3c-0.2-0.1-0.5-0.2-0.7-0.3c-0.2-0.1-0.4-0.2-0.6-0.3c-0.2-0.1-0.5-0.3-0.7-0.4c-0.2-0.1-0.4-0.3-0.6-0.4   c-0.1-0.1-0.3-0.2-0.4-0.3c0-0.1,0-0.1,0-0.2c0-0.6,0.1-1.1,0.1-1.7c0-0.1,0-0.1,0-0.2c0.1-0.5,0.2-1.1,0.3-1.6c0,0,0-0.1,0-0.1   c0.1-0.5,0.3-1.1,0.5-1.6c0-0.1,0.1-0.2,0.1-0.3c0.2-0.5,0.4-1,0.6-1.5c0-0.1,0.1-0.2,0.1-0.3c0.2-0.5,0.5-1,0.8-1.5   c0,0,0-0.1,0.1-0.1c0.3-0.5,0.6-0.9,0.9-1.4c0-0.1,0.1-0.1,0.1-0.2c0.3-0.4,0.7-0.9,1-1.3c0.1-0.1,0.1-0.2,0.2-0.2   c0.4-0.4,0.8-0.8,1.2-1.2c0,0,0,0,0.1-0.1c0,0.2,0.1,0.5,0.1,0.7c0,0.1,0,0.3,0.1,0.4c0.1,0.5,0.2,0.9,0.3,1.4c0,0.1,0,0.1,0.1,0.2   c0.1,0.4,0.2,0.8,0.3,1.2c0,0.2,0.1,0.3,0.1,0.4c0.1,0.3,0.2,0.6,0.3,0.9c0.1,0.2,0.1,0.3,0.2,0.5c0.1,0.3,0.2,0.6,0.4,0.8   c0.1,0.1,0.1,0.3,0.2,0.4c0.2,0.3,0.3,0.6,0.5,1c0.1,0.1,0.1,0.2,0.1,0.3c0.2,0.4,0.5,0.8,0.7,1.2c0.1,0.1,0.1,0.2,0.2,0.3   c0.2,0.3,0.4,0.6,0.6,0.9c0.1,0.1,0.2,0.3,0.3,0.4c0.2,0.2,0.4,0.5,0.6,0.7c0.1,0.1,0.2,0.3,0.3,0.4c0.2,0.2,0.4,0.5,0.7,0.7   c0.1,0.1,0.2,0.2,0.3,0.3c0.3,0.3,0.6,0.6,0.9,0.9c0,0,0.1,0.1,0.1,0.1c0.4,0.3,0.7,0.6,1.1,0.9c0.1,0.1,0.2,0.2,0.4,0.2   c0.3,0.2,0.5,0.4,0.8,0.6c0.1,0.1,0.3,0.2,0.4,0.3c0.1,0.1,0.2,0.2,0.4,0.2C29,42.3,28.5,42.5,28,42.6z M21.2,21   c0-0.3,0.1-0.6,0.2-0.8c0-0.2,0.1-0.3,0.1-0.5c0.1-0.3,0.2-0.6,0.3-1c0-0.1,0.1-0.2,0.1-0.3c0.1-0.4,0.3-0.8,0.4-1.2   c0-0.1,0.1-0.2,0.1-0.2c0.1-0.3,0.3-0.6,0.4-1c0.1-0.1,0.1-0.3,0.2-0.4c0.1-0.3,0.2-0.5,0.4-0.8c0.1-0.1,0.2-0.3,0.3-0.4   c0.1-0.2,0.3-0.5,0.4-0.7c0.1-0.1,0.2-0.3,0.3-0.4c0.1-0.2,0.3-0.4,0.4-0.6c0.1-0.1,0.2-0.3,0.3-0.4c0.2-0.2,0.3-0.4,0.5-0.6   c0.1-0.1,0.2-0.3,0.3-0.4c0.2-0.2,0.4-0.4,0.6-0.6c0.1-0.1,0.2-0.2,0.4-0.4c0.2-0.2,0.4-0.4,0.6-0.6c0.1-0.1,0.2-0.2,0.3-0.3   c0.3-0.3,0.6-0.5,1-0.8c0,0,0,0,0,0c0.4-0.3,0.7-0.5,1.1-0.7c0.1-0.1,0.2-0.1,0.4-0.2c0.3-0.2,0.5-0.3,0.8-0.4   c0.2-0.1,0.3-0.2,0.5-0.2c0.2-0.1,0.3-0.2,0.5-0.3C32.2,6.9,32.4,7,32.5,7c0.2,0.1,0.3,0.1,0.5,0.2c0.3,0.1,0.5,0.3,0.8,0.5   c0.1,0.1,0.2,0.1,0.3,0.2c0.4,0.2,0.7,0.5,1.1,0.7c0,0,0,0,0,0c0.3,0.2,0.7,0.5,1,0.8c0.1,0.1,0.2,0.2,0.3,0.3   c0.2,0.2,0.4,0.4,0.6,0.6c0.1,0.1,0.2,0.2,0.4,0.4c0.2,0.2,0.4,0.4,0.5,0.6c0.1,0.1,0.2,0.3,0.4,0.4c0.2,0.2,0.3,0.4,0.5,0.6   c0.1,0.1,0.2,0.3,0.3,0.4c0.2,0.2,0.3,0.4,0.4,0.6c0.1,0.1,0.2,0.3,0.3,0.5c0.1,0.2,0.3,0.4,0.4,0.7c0.1,0.2,0.2,0.3,0.3,0.5   c0.1,0.2,0.3,0.5,0.4,0.7c0.1,0.1,0.1,0.3,0.2,0.4c0.1,0.3,0.3,0.6,0.4,1c0,0.1,0.1,0.2,0.1,0.2c0.2,0.4,0.3,0.8,0.4,1.2   c0,0.1,0.1,0.2,0.1,0.4c0.1,0.3,0.2,0.6,0.2,0.9c0,0.2,0.1,0.3,0.1,0.5c0.1,0.3,0.1,0.5,0.2,0.8c0,0.2,0,0.3,0.1,0.5   c0,0.2,0,0.3,0.1,0.5c-0.3-0.2-0.6-0.4-0.9-0.5c-0.1-0.1-0.2-0.1-0.3-0.2c-0.5-0.2-0.9-0.5-1.4-0.7c-0.1-0.1-0.3-0.1-0.4-0.2   c-0.4-0.1-0.7-0.3-1.1-0.4c-0.2-0.1-0.4-0.1-0.5-0.2c-0.3-0.1-0.6-0.2-1-0.3c-0.2-0.1-0.4-0.1-0.6-0.1c-0.3-0.1-0.7-0.1-1-0.2   c-0.2,0-0.4-0.1-0.6-0.1c-0.4-0.1-0.7-0.1-1.1-0.1c-0.2,0-0.3,0-0.5-0.1C33.1,19,32.5,19,32,19c-0.5,0-1.1,0-1.6,0.1   c-0.2,0-0.3,0-0.5,0.1c-0.4,0-0.7,0.1-1.1,0.1c-0.2,0-0.4,0.1-0.6,0.1c-0.3,0.1-0.6,0.1-1,0.2c-0.2,0-0.4,0.1-0.6,0.1   c-0.3,0.1-0.6,0.2-1,0.3c-0.2,0.1-0.4,0.1-0.6,0.2c-0.4,0.1-0.7,0.3-1,0.4c-0.1,0.1-0.3,0.1-0.4,0.2c-0.5,0.2-1,0.4-1.4,0.7   c-0.1,0-0.2,0.1-0.3,0.2c-0.3,0.2-0.6,0.3-0.9,0.5c0-0.2,0-0.3,0.1-0.5C21.2,21.4,21.2,21.2,21.2,21z M42.9,25.6   c0,0.3-0.1,0.5-0.1,0.8c0,0.2,0,0.4-0.1,0.6c0,0.3-0.1,0.5-0.1,0.8c0,0.2-0.1,0.4-0.1,0.6c-0.1,0.2-0.1,0.5-0.2,0.7   c-0.1,0.2-0.1,0.4-0.2,0.6c-0.1,0.2-0.2,0.5-0.3,0.7c-0.1,0.2-0.1,0.4-0.2,0.5c-0.1,0.2-0.2,0.5-0.3,0.7c-0.1,0.2-0.1,0.3-0.2,0.5   c-0.1,0.2-0.2,0.5-0.4,0.7c-0.1,0.2-0.2,0.3-0.2,0.5c-0.2,0.3-0.3,0.5-0.5,0.8c-0.1,0.1-0.1,0.2-0.2,0.3c-0.2,0.4-0.5,0.7-0.8,1.1   c-0.1,0.1-0.2,0.2-0.3,0.3c-0.2,0.2-0.4,0.5-0.6,0.7c-0.1,0.1-0.3,0.3-0.4,0.4c-0.2,0.2-0.3,0.4-0.5,0.6c-0.1,0.1-0.3,0.3-0.4,0.4   c-0.2,0.2-0.4,0.3-0.5,0.5c-0.2,0.1-0.3,0.3-0.5,0.4c-0.2,0.2-0.4,0.3-0.6,0.4c-0.2,0.1-0.3,0.2-0.5,0.4c-0.2,0.1-0.4,0.3-0.6,0.4   c-0.2,0.1-0.4,0.2-0.5,0.3c-0.2,0.1-0.4,0.2-0.6,0.4c-0.2,0.1-0.4,0.2-0.6,0.3c-0.2,0.1-0.3,0.1-0.5,0.2c-0.2-0.1-0.3-0.1-0.5-0.2   c-0.2-0.1-0.4-0.2-0.6-0.3c-0.2-0.1-0.4-0.2-0.6-0.4c-0.2-0.1-0.4-0.2-0.5-0.3c-0.2-0.1-0.4-0.3-0.6-0.4c-0.2-0.1-0.3-0.2-0.5-0.4   c-0.2-0.1-0.4-0.3-0.6-0.5c-0.2-0.1-0.3-0.3-0.5-0.4c-0.2-0.2-0.4-0.3-0.6-0.5c-0.1-0.1-0.3-0.3-0.4-0.4c-0.2-0.2-0.4-0.4-0.5-0.6   c-0.1-0.1-0.3-0.3-0.4-0.4c-0.2-0.2-0.4-0.5-0.6-0.7c-0.1-0.1-0.2-0.2-0.3-0.3c-0.3-0.4-0.5-0.7-0.8-1.1c-0.1-0.1-0.1-0.2-0.2-0.4   c-0.2-0.3-0.3-0.5-0.5-0.8c-0.1-0.2-0.2-0.3-0.2-0.5c-0.1-0.2-0.2-0.5-0.4-0.7c-0.1-0.2-0.2-0.4-0.2-0.5c-0.1-0.2-0.2-0.5-0.3-0.7   c-0.1-0.2-0.1-0.4-0.2-0.6c-0.1-0.2-0.2-0.5-0.2-0.7c-0.1-0.2-0.1-0.4-0.2-0.6c-0.1-0.2-0.1-0.5-0.2-0.7c0-0.2-0.1-0.4-0.1-0.6   c0-0.2-0.1-0.5-0.1-0.7c0-0.2-0.1-0.4-0.1-0.6c0-0.2-0.1-0.5-0.1-0.7c0-0.2,0-0.4,0-0.6c0-0.2,0-0.3,0-0.5c0.2-0.1,0.3-0.2,0.5-0.3   c0.2-0.1,0.4-0.3,0.6-0.4c0.2-0.1,0.5-0.3,0.7-0.4c0.2-0.1,0.4-0.2,0.6-0.3c0.2-0.1,0.5-0.2,0.7-0.4c0.2-0.1,0.4-0.2,0.6-0.3   c0.3-0.1,0.5-0.2,0.8-0.3c0.2-0.1,0.4-0.2,0.6-0.2c0.3-0.1,0.5-0.2,0.8-0.2c0.2-0.1,0.4-0.1,0.6-0.2c0.3-0.1,0.6-0.1,0.9-0.2   c0.2,0,0.4-0.1,0.6-0.1c0.3-0.1,0.7-0.1,1-0.1c0.2,0,0.3,0,0.5-0.1c0.5,0,1-0.1,1.5-0.1c0.5,0,1,0,1.5,0.1c0.2,0,0.3,0,0.5,0.1   c0.3,0,0.7,0.1,1,0.1c0.2,0,0.4,0.1,0.6,0.1c0.3,0.1,0.6,0.1,0.9,0.2c0.2,0,0.4,0.1,0.6,0.2c0.3,0.1,0.6,0.2,0.8,0.2   c0.2,0.1,0.4,0.1,0.6,0.2c0.3,0.1,0.5,0.2,0.8,0.3c0.2,0.1,0.4,0.2,0.6,0.3c0.3,0.1,0.5,0.2,0.8,0.4c0.2,0.1,0.4,0.2,0.6,0.3   c0.2,0.1,0.5,0.3,0.7,0.4c0.2,0.1,0.4,0.2,0.6,0.4c0.2,0.1,0.3,0.2,0.5,0.3c0,0.2,0,0.3,0,0.5C42.9,25.2,42.9,25.4,42.9,25.6z    M5,24C5,13.5,13.5,5,24,5c1.9,0,3.7,0.3,5.5,0.8C29.4,5.9,29.3,6,29.1,6c-0.2,0.1-0.3,0.2-0.5,0.3c-0.2,0.2-0.5,0.3-0.7,0.5   c-0.2,0.1-0.3,0.2-0.5,0.3c-0.2,0.2-0.4,0.3-0.7,0.5c-0.2,0.1-0.3,0.2-0.5,0.4c-0.2,0.2-0.4,0.4-0.6,0.6c-0.2,0.2-0.3,0.3-0.5,0.5   c-0.3,0.3-0.6,0.6-0.9,0.9c-0.2,0.2-0.4,0.5-0.6,0.7c-0.1,0.1-0.2,0.2-0.3,0.4c-0.2,0.3-0.4,0.5-0.6,0.8c-0.1,0.1-0.2,0.2-0.2,0.3   c-0.2,0.3-0.4,0.6-0.6,0.9c-0.1,0.1-0.1,0.2-0.2,0.3c-0.2,0.3-0.4,0.6-0.5,1c0,0.1-0.1,0.1-0.1,0.2c-0.2,0.4-0.4,0.7-0.5,1.1   c0,0,0,0,0,0c-1,2.4-1.6,4.9-1.7,7.6c0,0.1,0,0.2,0,0.3c0,0-0.1,0.1-0.1,0.1c-0.5,0.4-1,0.8-1.4,1.3c0,0-0.1,0.1-0.1,0.1   c-0.4,0.4-0.9,0.9-1.3,1.4c0,0-0.1,0.1-0.1,0.1c-0.4,0.5-0.8,1-1.1,1.5c-0.1,0.1-0.1,0.2-0.2,0.3c-0.3,0.5-0.7,1-1,1.6   c-0.1,0.1-0.1,0.2-0.2,0.3c-0.3,0.5-0.6,1.1-0.8,1.7c0,0,0,0.1-0.1,0.1c-0.2,0.6-0.4,1.1-0.6,1.7c0,0.1,0,0.1-0.1,0.2   c-0.2,0.6-0.3,1.2-0.5,1.8c0,0.1,0,0.2-0.1,0.3c-0.1,0.6-0.2,1.2-0.3,1.8c0,0,0,0.1,0,0.1C7.2,34.3,5,29.4,5,24z M32,59   c-9.8,0-17.9-7.5-18.9-17.1c0.3,0.2,0.6,0.4,0.9,0.5c0.1,0,0.2,0.1,0.3,0.2c0.5,0.2,0.9,0.5,1.4,0.7c0.1,0.1,0.3,0.1,0.4,0.2   c0.4,0.1,0.7,0.3,1.1,0.4c0.2,0.1,0.4,0.1,0.5,0.2c0.3,0.1,0.6,0.2,1,0.3c0.2,0.1,0.4,0.1,0.6,0.1c0.3,0.1,0.6,0.1,1,0.2   c0.2,0,0.4,0.1,0.6,0.1c0.4,0.1,0.7,0.1,1.1,0.1c0.2,0,0.3,0,0.5,0.1c0.5,0,1.1,0.1,1.6,0.1c0.7,0,1.4,0,2.1-0.1   c0.2,0,0.5-0.1,0.7-0.1c0.5-0.1,0.9-0.1,1.4-0.2c0.3-0.1,0.5-0.1,0.8-0.2c0.4-0.1,0.8-0.2,1.2-0.3c0.3-0.1,0.6-0.2,0.8-0.3   c0.3-0.1,0.6-0.2,0.9-0.3c0.3,0.1,0.6,0.2,0.9,0.3c0.3,0.1,0.6,0.2,0.8,0.3c0.4,0.1,0.8,0.2,1.2,0.3c0.3,0.1,0.5,0.1,0.8,0.2   c0.5,0.1,0.9,0.2,1.4,0.2c0.2,0,0.5,0.1,0.7,0.1C38.6,45,39.3,45,40,45c0.5,0,1.1,0,1.6-0.1c0.2,0,0.3,0,0.5-0.1   c0.4,0,0.7-0.1,1.1-0.1c0.2,0,0.4-0.1,0.6-0.1c0.3-0.1,0.6-0.1,1-0.2c0.2,0,0.4-0.1,0.6-0.1c0.3-0.1,0.6-0.2,1-0.3   c0.2-0.1,0.4-0.1,0.6-0.2c0.4-0.1,0.7-0.3,1-0.4c0.1-0.1,0.3-0.1,0.4-0.2c0.5-0.2,1-0.4,1.4-0.7c0.1,0,0.2-0.1,0.3-0.2   c0.3-0.2,0.6-0.3,0.9-0.5C49.9,51.5,41.8,59,32,59z"/></g></svg>